<mxfile modified="2021-11-30T02:40:33.550Z" host="app.diagrams.net" agent="5.0 (Windows NT 10.0; Win64; x64) AppleWebKit/537.36 (KHTML, like Gecko) Chrome/96.0.4664.45 Safari/537.36" etag="QaGPVMLp6AKYN4XFDJxt" version="15.8.7" type="github">
  <diagram id="Ht1M8jgEwFfnCIfOTk4-" name="Page-1">
    <mxGraphModel dx="1240" dy="643" grid="1" gridSize="10" guides="1" tooltips="1" connect="1" arrows="1" fold="1" page="1" pageScale="1" pageWidth="1169" pageHeight="827" math="0" shadow="0">
      <root>
        <mxCell id="0" />
        <mxCell id="1" parent="0" />
        <mxCell id="UEzPUAAOIrF-is8g5C7q-124" style="edgeStyle=orthogonalEdgeStyle;rounded=0;orthogonalLoop=1;jettySize=auto;html=1;startArrow=open;startFill=0;endArrow=open;endFill=0;strokeWidth=2;strokeColor=#808080;" parent="1" source="UEzPUAAOIrF-is8g5C7q-110" edge="1">
          <mxGeometry relative="1" as="geometry">
            <Array as="points">
              <mxPoint x="301" y="230" />
              <mxPoint x="301" y="102" />
            </Array>
            <mxPoint x="412.5" y="101.57142857142867" as="targetPoint" />
          </mxGeometry>
        </mxCell>
        <mxCell id="UEzPUAAOIrF-is8g5C7q-139" style="edgeStyle=orthogonalEdgeStyle;rounded=0;orthogonalLoop=1;jettySize=auto;html=1;startArrow=open;startFill=0;endArrow=open;endFill=0;strokeWidth=2;strokeColor=#808080;" parent="1" source="UEzPUAAOIrF-is8g5C7q-110" edge="1">
          <mxGeometry relative="1" as="geometry">
            <mxPoint x="270.2846463484759" y="261.67647058823536" as="sourcePoint" />
            <mxPoint x="440" y="440" as="targetPoint" />
            <Array as="points">
              <mxPoint x="300" y="280" />
              <mxPoint x="300" y="440" />
            </Array>
          </mxGeometry>
        </mxCell>
        <mxCell id="UEzPUAAOIrF-is8g5C7q-109" value="Client Desktop" style="outlineConnect=0;gradientColor=none;fontColor=#545B64;strokeColor=none;fillColor=#879196;dashed=0;verticalLabelPosition=bottom;verticalAlign=top;align=center;html=1;fontSize=12;fontStyle=0;aspect=fixed;shape=mxgraph.aws4.illustration_desktop;pointerEvents=1;labelBackgroundColor=#ffffff;" parent="1" vertex="1">
          <mxGeometry x="50" y="216.5" width="100" height="91" as="geometry" />
        </mxCell>
        <mxCell id="UEzPUAAOIrF-is8g5C7q-110" value="Client Mobile" style="outlineConnect=0;gradientColor=none;fontColor=#545B64;strokeColor=none;fillColor=#879196;dashed=0;verticalLabelPosition=bottom;verticalAlign=top;align=center;html=1;fontSize=12;fontStyle=0;aspect=fixed;shape=mxgraph.aws4.illustration_notification;pointerEvents=1;labelBackgroundColor=#ffffff;" parent="1" vertex="1">
          <mxGeometry x="160.5" y="221.5" width="100" height="81" as="geometry" />
        </mxCell>
        <mxCell id="fRY_W3nLzrXJiJVuT2Vn-15" value="" style="edgeStyle=orthogonalEdgeStyle;rounded=0;orthogonalLoop=1;jettySize=auto;html=1;strokeColor=#808080;" parent="1" source="fRY_W3nLzrXJiJVuT2Vn-3" target="fRY_W3nLzrXJiJVuT2Vn-7" edge="1">
          <mxGeometry relative="1" as="geometry" />
        </mxCell>
        <mxCell id="fRY_W3nLzrXJiJVuT2Vn-3" value="AUTH&lt;br&gt;Login - Regiter" style="rounded=0;whiteSpace=wrap;html=1;fillColor=#dae8fc;strokeColor=#6c8ebf;" parent="1" vertex="1">
          <mxGeometry x="465" y="222" width="120" height="60" as="geometry" />
        </mxCell>
        <mxCell id="fRY_W3nLzrXJiJVuT2Vn-21" value="" style="edgeStyle=orthogonalEdgeStyle;rounded=0;orthogonalLoop=1;jettySize=auto;html=1;strokeColor=#808080;" parent="1" source="fRY_W3nLzrXJiJVuT2Vn-4" target="fRY_W3nLzrXJiJVuT2Vn-12" edge="1">
          <mxGeometry relative="1" as="geometry">
            <Array as="points">
              <mxPoint x="840" y="252" />
            </Array>
          </mxGeometry>
        </mxCell>
        <mxCell id="fRY_W3nLzrXJiJVuT2Vn-4" value="" style="sketch=0;points=[[0,0,0],[0.25,0,0],[0.5,0,0],[0.75,0,0],[1,0,0],[0,1,0],[0.25,1,0],[0.5,1,0],[0.75,1,0],[1,1,0],[0,0.25,0],[0,0.5,0],[0,0.75,0],[1,0.25,0],[1,0.5,0],[1,0.75,0]];outlineConnect=0;fontColor=#232F3E;gradientColor=#945DF2;gradientDirection=north;fillColor=#5A30B5;strokeColor=#ffffff;dashed=0;verticalLabelPosition=bottom;verticalAlign=top;align=center;html=1;fontSize=12;fontStyle=0;aspect=fixed;shape=mxgraph.aws4.resourceIcon;resIcon=mxgraph.aws4.api_gateway;" parent="1" vertex="1">
          <mxGeometry x="680" y="213" width="78" height="78" as="geometry" />
        </mxCell>
        <mxCell id="fRY_W3nLzrXJiJVuT2Vn-7" value="API GATEWAY" style="text;html=1;align=center;verticalAlign=middle;resizable=0;points=[];autosize=1;strokeColor=none;fillColor=none;" parent="1" vertex="1">
          <mxGeometry x="670" y="291" width="100" height="20" as="geometry" />
        </mxCell>
        <mxCell id="fRY_W3nLzrXJiJVuT2Vn-22" value="" style="edgeStyle=orthogonalEdgeStyle;rounded=0;orthogonalLoop=1;jettySize=auto;html=1;strokeColor=#808080;" parent="1" source="fRY_W3nLzrXJiJVuT2Vn-8" target="fRY_W3nLzrXJiJVuT2Vn-13" edge="1">
          <mxGeometry relative="1" as="geometry">
            <Array as="points">
              <mxPoint x="1030" y="251" />
            </Array>
          </mxGeometry>
        </mxCell>
        <mxCell id="fRY_W3nLzrXJiJVuT2Vn-8" value="" style="sketch=0;points=[[0,0,0],[0.25,0,0],[0.5,0,0],[0.75,0,0],[1,0,0],[0,1,0],[0.25,1,0],[0.5,1,0],[0.75,1,0],[1,1,0],[0,0.25,0],[0,0.5,0],[0,0.75,0],[1,0.25,0],[1,0.5,0],[1,0.75,0]];outlineConnect=0;fontColor=#232F3E;gradientColor=#F78E04;gradientDirection=north;fillColor=#D05C17;strokeColor=#ffffff;dashed=0;verticalLabelPosition=bottom;verticalAlign=top;align=center;html=1;fontSize=12;fontStyle=0;aspect=fixed;shape=mxgraph.aws4.resourceIcon;resIcon=mxgraph.aws4.lambda;" parent="1" vertex="1">
          <mxGeometry x="840" y="212" width="78" height="78" as="geometry" />
        </mxCell>
        <mxCell id="fRY_W3nLzrXJiJVuT2Vn-23" style="edgeStyle=orthogonalEdgeStyle;rounded=0;orthogonalLoop=1;jettySize=auto;html=1;exitX=0;exitY=0.5;exitDx=0;exitDy=0;exitPerimeter=0;strokeColor=#808080;entryX=0;entryY=0.491;entryDx=0;entryDy=0;entryPerimeter=0;" parent="1" source="fRY_W3nLzrXJiJVuT2Vn-9" target="fRY_W3nLzrXJiJVuT2Vn-9" edge="1">
          <mxGeometry relative="1" as="geometry">
            <mxPoint x="1010" y="251.28571428571433" as="targetPoint" />
          </mxGeometry>
        </mxCell>
        <mxCell id="fRY_W3nLzrXJiJVuT2Vn-9" value="" style="sketch=0;points=[[0,0,0],[0.25,0,0],[0.5,0,0],[0.75,0,0],[1,0,0],[0,1,0],[0.25,1,0],[0.5,1,0],[0.75,1,0],[1,1,0],[0,0.25,0],[0,0.5,0],[0,0.75,0],[1,0.25,0],[1,0.5,0],[1,0.75,0]];outlineConnect=0;fontColor=#232F3E;gradientColor=#4D72F3;gradientDirection=north;fillColor=#3334B9;strokeColor=#ffffff;dashed=0;verticalLabelPosition=bottom;verticalAlign=top;align=center;html=1;fontSize=12;fontStyle=0;aspect=fixed;shape=mxgraph.aws4.resourceIcon;resIcon=mxgraph.aws4.documentdb_with_mongodb_compatibility;" parent="1" vertex="1">
          <mxGeometry x="1020" y="213" width="78" height="78" as="geometry" />
        </mxCell>
        <mxCell id="fRY_W3nLzrXJiJVuT2Vn-12" value="LAMBDA" style="text;html=1;align=center;verticalAlign=middle;resizable=0;points=[];autosize=1;strokeColor=none;fillColor=none;" parent="1" vertex="1">
          <mxGeometry x="840" y="290" width="60" height="20" as="geometry" />
        </mxCell>
        <mxCell id="fRY_W3nLzrXJiJVuT2Vn-13" value="DocumentDB" style="text;html=1;align=center;verticalAlign=middle;resizable=0;points=[];autosize=1;strokeColor=none;fillColor=none;" parent="1" vertex="1">
          <mxGeometry x="1014" y="290" width="90" height="20" as="geometry" />
        </mxCell>
        <mxCell id="fRY_W3nLzrXJiJVuT2Vn-28" value="" style="endArrow=classic;startArrow=classic;html=1;rounded=0;strokeColor=#808080;" parent="1" edge="1">
          <mxGeometry width="50" height="50" relative="1" as="geometry">
            <mxPoint x="280" y="252" as="sourcePoint" />
            <mxPoint x="450" y="252" as="targetPoint" />
          </mxGeometry>
        </mxCell>
        <mxCell id="SdR3aDSX6xwLzwUhgt3a-15" style="edgeStyle=orthogonalEdgeStyle;rounded=0;orthogonalLoop=1;jettySize=auto;html=1;exitX=0;exitY=0.5;exitDx=0;exitDy=0;exitPerimeter=0;" edge="1" parent="1" source="SdR3aDSX6xwLzwUhgt3a-1">
          <mxGeometry relative="1" as="geometry">
            <mxPoint x="930" y="98" as="targetPoint" />
            <Array as="points">
              <mxPoint x="930" y="98" />
            </Array>
          </mxGeometry>
        </mxCell>
        <mxCell id="SdR3aDSX6xwLzwUhgt3a-1" value="" style="sketch=0;points=[[0,0,0],[0.25,0,0],[0.5,0,0],[0.75,0,0],[1,0,0],[0,1,0],[0.25,1,0],[0.5,1,0],[0.75,1,0],[1,1,0],[0,0.25,0],[0,0.5,0],[0,0.75,0],[1,0.25,0],[1,0.5,0],[1,0.75,0]];outlineConnect=0;fontColor=#232F3E;gradientColor=#60A337;gradientDirection=north;fillColor=#277116;strokeColor=#ffffff;dashed=0;verticalLabelPosition=bottom;verticalAlign=top;align=center;html=1;fontSize=12;fontStyle=0;aspect=fixed;shape=mxgraph.aws4.resourceIcon;resIcon=mxgraph.aws4.s3;" vertex="1" parent="1">
          <mxGeometry x="1000" y="59" width="78" height="78" as="geometry" />
        </mxCell>
        <mxCell id="SdR3aDSX6xwLzwUhgt3a-2" value="AUTH&lt;br&gt;Escorts&lt;br&gt;client" style="rounded=1;whiteSpace=wrap;html=1;" vertex="1" parent="1">
          <mxGeometry x="430" y="68" width="120" height="60" as="geometry" />
        </mxCell>
        <mxCell id="SdR3aDSX6xwLzwUhgt3a-12" value="" style="edgeStyle=orthogonalEdgeStyle;rounded=0;orthogonalLoop=1;jettySize=auto;html=1;" edge="1" parent="1" source="SdR3aDSX6xwLzwUhgt3a-5" target="SdR3aDSX6xwLzwUhgt3a-10">
          <mxGeometry relative="1" as="geometry" />
        </mxCell>
        <mxCell id="SdR3aDSX6xwLzwUhgt3a-5" value="userna,e&lt;br&gt;email&lt;br&gt;phone&lt;br&gt;profileimg&lt;br&gt;birth_date&lt;br&gt;role" style="text;html=1;align=center;verticalAlign=middle;resizable=0;points=[];autosize=1;strokeColor=none;fillColor=none;" vertex="1" parent="1">
          <mxGeometry x="560" y="53" width="70" height="90" as="geometry" />
        </mxCell>
        <mxCell id="SdR3aDSX6xwLzwUhgt3a-17" style="edgeStyle=orthogonalEdgeStyle;rounded=0;orthogonalLoop=1;jettySize=auto;html=1;exitX=1;exitY=0.5;exitDx=0;exitDy=0;exitPerimeter=0;" edge="1" parent="1" source="SdR3aDSX6xwLzwUhgt3a-9">
          <mxGeometry relative="1" as="geometry">
            <mxPoint x="840" y="98.42857142857144" as="targetPoint" />
          </mxGeometry>
        </mxCell>
        <mxCell id="SdR3aDSX6xwLzwUhgt3a-9" value="" style="verticalLabelPosition=bottom;verticalAlign=top;html=1;shape=mxgraph.basic.frame;dx=10;" vertex="1" parent="1">
          <mxGeometry x="658" y="68" width="100" height="60" as="geometry" />
        </mxCell>
        <mxCell id="SdR3aDSX6xwLzwUhgt3a-13" style="edgeStyle=orthogonalEdgeStyle;rounded=0;orthogonalLoop=1;jettySize=auto;html=1;entryX=0.5;entryY=0;entryDx=0;entryDy=0;entryPerimeter=0;" edge="1" parent="1" source="SdR3aDSX6xwLzwUhgt3a-10" target="SdR3aDSX6xwLzwUhgt3a-1">
          <mxGeometry relative="1" as="geometry">
            <mxPoint x="850" y="40" as="targetPoint" />
            <Array as="points">
              <mxPoint x="770" y="98" />
              <mxPoint x="770" y="40" />
              <mxPoint x="1039" y="40" />
            </Array>
          </mxGeometry>
        </mxCell>
        <mxCell id="SdR3aDSX6xwLzwUhgt3a-14" value="profile img" style="edgeLabel;html=1;align=center;verticalAlign=middle;resizable=0;points=[];" vertex="1" connectable="0" parent="SdR3aDSX6xwLzwUhgt3a-13">
          <mxGeometry x="0.0613" y="3" relative="1" as="geometry">
            <mxPoint x="6" as="offset" />
          </mxGeometry>
        </mxCell>
        <mxCell id="SdR3aDSX6xwLzwUhgt3a-10" value="VALID FIELDS" style="text;html=1;align=center;verticalAlign=middle;resizable=0;points=[];autosize=1;strokeColor=none;fillColor=none;" vertex="1" parent="1">
          <mxGeometry x="663" y="88" width="90" height="20" as="geometry" />
        </mxCell>
        <mxCell id="SdR3aDSX6xwLzwUhgt3a-23" style="edgeStyle=orthogonalEdgeStyle;rounded=0;orthogonalLoop=1;jettySize=auto;html=1;entryX=0.5;entryY=0;entryDx=0;entryDy=0;" edge="1" parent="1" source="SdR3aDSX6xwLzwUhgt3a-18" target="fRY_W3nLzrXJiJVuT2Vn-3">
          <mxGeometry relative="1" as="geometry">
            <Array as="points">
              <mxPoint x="883" y="170" />
              <mxPoint x="525" y="170" />
            </Array>
          </mxGeometry>
        </mxCell>
        <mxCell id="SdR3aDSX6xwLzwUhgt3a-18" value="SAVE DB" style="ellipse;whiteSpace=wrap;html=1;" vertex="1" parent="1">
          <mxGeometry x="848" y="72" width="70" height="52" as="geometry" />
        </mxCell>
        <mxCell id="SdR3aDSX6xwLzwUhgt3a-42" style="edgeStyle=orthogonalEdgeStyle;rounded=0;orthogonalLoop=1;jettySize=auto;html=1;entryX=0;entryY=0.5;entryDx=0;entryDy=0;" edge="1" parent="1" source="SdR3aDSX6xwLzwUhgt3a-24" target="SdR3aDSX6xwLzwUhgt3a-41">
          <mxGeometry relative="1" as="geometry" />
        </mxCell>
        <mxCell id="SdR3aDSX6xwLzwUhgt3a-24" value="Escorts&lt;br&gt;Create post" style="rounded=1;whiteSpace=wrap;html=1;" vertex="1" parent="1">
          <mxGeometry x="440" y="410" width="120" height="60" as="geometry" />
        </mxCell>
        <mxCell id="SdR3aDSX6xwLzwUhgt3a-25" value="images&lt;br&gt;max-3&lt;br&gt;text&lt;br&gt;max-400&lt;br&gt;ubicacion&lt;br&gt;servicios&lt;br&gt;tags&amp;nbsp;&lt;br&gt;max-3" style="text;html=1;strokeColor=none;fillColor=none;align=center;verticalAlign=middle;whiteSpace=wrap;rounded=0;" vertex="1" parent="1">
          <mxGeometry x="565" y="425" width="60" height="30" as="geometry" />
        </mxCell>
        <mxCell id="SdR3aDSX6xwLzwUhgt3a-32" style="edgeStyle=orthogonalEdgeStyle;rounded=0;orthogonalLoop=1;jettySize=auto;html=1;exitX=0;exitY=0.5;exitDx=0;exitDy=0;exitPerimeter=0;" edge="1" parent="1" source="SdR3aDSX6xwLzwUhgt3a-33">
          <mxGeometry relative="1" as="geometry">
            <mxPoint x="922" y="438" as="targetPoint" />
            <Array as="points">
              <mxPoint x="922" y="438" />
            </Array>
          </mxGeometry>
        </mxCell>
        <mxCell id="SdR3aDSX6xwLzwUhgt3a-33" value="" style="sketch=0;points=[[0,0,0],[0.25,0,0],[0.5,0,0],[0.75,0,0],[1,0,0],[0,1,0],[0.25,1,0],[0.5,1,0],[0.75,1,0],[1,1,0],[0,0.25,0],[0,0.5,0],[0,0.75,0],[1,0.25,0],[1,0.5,0],[1,0.75,0]];outlineConnect=0;fontColor=#232F3E;gradientColor=#60A337;gradientDirection=north;fillColor=#277116;strokeColor=#ffffff;dashed=0;verticalLabelPosition=bottom;verticalAlign=top;align=center;html=1;fontSize=12;fontStyle=0;aspect=fixed;shape=mxgraph.aws4.resourceIcon;resIcon=mxgraph.aws4.s3;" vertex="1" parent="1">
          <mxGeometry x="992" y="399" width="78" height="78" as="geometry" />
        </mxCell>
        <mxCell id="SdR3aDSX6xwLzwUhgt3a-34" style="edgeStyle=orthogonalEdgeStyle;rounded=0;orthogonalLoop=1;jettySize=auto;html=1;exitX=1;exitY=0.5;exitDx=0;exitDy=0;exitPerimeter=0;" edge="1" parent="1" source="SdR3aDSX6xwLzwUhgt3a-35">
          <mxGeometry relative="1" as="geometry">
            <mxPoint x="832" y="438.42857142857144" as="targetPoint" />
          </mxGeometry>
        </mxCell>
        <mxCell id="SdR3aDSX6xwLzwUhgt3a-35" value="" style="verticalLabelPosition=bottom;verticalAlign=top;html=1;shape=mxgraph.basic.frame;dx=10;" vertex="1" parent="1">
          <mxGeometry x="650" y="408" width="100" height="60" as="geometry" />
        </mxCell>
        <mxCell id="SdR3aDSX6xwLzwUhgt3a-36" style="edgeStyle=orthogonalEdgeStyle;rounded=0;orthogonalLoop=1;jettySize=auto;html=1;entryX=0.5;entryY=0;entryDx=0;entryDy=0;entryPerimeter=0;" edge="1" parent="1" source="SdR3aDSX6xwLzwUhgt3a-38" target="SdR3aDSX6xwLzwUhgt3a-33">
          <mxGeometry relative="1" as="geometry">
            <mxPoint x="842" y="380" as="targetPoint" />
            <Array as="points">
              <mxPoint x="762" y="438" />
              <mxPoint x="762" y="380" />
              <mxPoint x="1031" y="380" />
            </Array>
          </mxGeometry>
        </mxCell>
        <mxCell id="SdR3aDSX6xwLzwUhgt3a-37" value="images" style="edgeLabel;html=1;align=center;verticalAlign=middle;resizable=0;points=[];" vertex="1" connectable="0" parent="SdR3aDSX6xwLzwUhgt3a-36">
          <mxGeometry x="0.0613" y="3" relative="1" as="geometry">
            <mxPoint x="6" as="offset" />
          </mxGeometry>
        </mxCell>
        <mxCell id="SdR3aDSX6xwLzwUhgt3a-38" value="VALID FIELDS" style="text;html=1;align=center;verticalAlign=middle;resizable=0;points=[];autosize=1;strokeColor=none;fillColor=none;" vertex="1" parent="1">
          <mxGeometry x="655" y="428" width="90" height="20" as="geometry" />
        </mxCell>
        <mxCell id="SdR3aDSX6xwLzwUhgt3a-39" value="SAVE DB" style="ellipse;whiteSpace=wrap;html=1;" vertex="1" parent="1">
          <mxGeometry x="840" y="412" width="70" height="52" as="geometry" />
        </mxCell>
        <mxCell id="SdR3aDSX6xwLzwUhgt3a-41" value="Post Comments" style="rounded=1;whiteSpace=wrap;html=1;" vertex="1" parent="1">
          <mxGeometry x="525" y="540" width="120" height="60" as="geometry" />
        </mxCell>
        <mxCell id="SdR3aDSX6xwLzwUhgt3a-44" value="Text&lt;br&gt;max-500" style="text;html=1;align=center;verticalAlign=middle;resizable=0;points=[];autosize=1;strokeColor=none;fillColor=none;" vertex="1" parent="1">
          <mxGeometry x="655" y="555" width="60" height="30" as="geometry" />
        </mxCell>
      </root>
    </mxGraphModel>
  </diagram>
</mxfile>
